<svg width="48" height="48" viewBox="0 0 48 48" fill="none" xmlns="http://www.w3.org/2000/svg">
<path fill-rule="evenodd" clip-rule="evenodd" d="M11.2963 5H32.7037C33.2884 5 33.5807 5 33.8272 5.02262C36.5667 5.27409 38.7388 7.55292 38.9784 10.4272C39 10.6858 39 10.9925 39 11.6059V23.0881C37.4779 22.3895 35.7844 22 34 22C30.9564 22 28.1774 23.1331 26.062 25.0005H11C10.4477 25.0005 10 25.4482 10 26.0005C10 26.5528 10.4477 27.0005 11 27.0005H24.2517C23.5954 27.9129 23.064 28.9213 22.6826 30.0005H11C10.4477 30.0005 10 30.4482 10 31.0005C10 31.5528 10.4477 32.0005 11 32.0005H22.1658C22.0568 32.6508 22 33.3187 22 34C22 35.7058 22.3559 37.3285 22.9976 38.7978C21.93 39.2491 20.6325 38.9449 19.875 37.8852C18.8125 36.3989 16.6875 36.3989 15.625 37.8852C14.5625 39.3716 12.4375 39.3716 11.375 37.8852L10.5577 36.7419C9.90385 35.8272 8.59615 35.8272 7.94231 36.7419C6.99978 38.0604 5 37.361 5 35.7129V11.606C5 10.9925 5 10.6858 5.02156 10.4272C5.26124 7.55292 7.43325 5.27409 10.1728 5.02262C10.4193 5 10.7116 5 11.2963 5ZM17.4501 19.847C17.6204 19.9605 17.8312 20.0173 18.0826 20.0173C18.3989 20.0173 18.6341 19.9443 18.7882 19.7983C18.9422 19.6523 19.0923 19.4172 19.2382 19.0928L19.6313 18.1683H23.4554L23.8485 19.0928C23.9863 19.4172 24.1404 19.6523 24.3107 19.7983C24.4891 19.9443 24.7405 20.0173 25.0649 20.0173C25.3082 20.0173 25.5109 19.9605 25.6731 19.847C25.8434 19.7334 25.9448 19.5712 25.9772 19.3604C26.0178 19.1495 25.9732 18.9144 25.8434 18.6549L22.8145 12.1349C22.6604 11.8186 22.478 11.5875 22.2671 11.4415C22.0644 11.2955 21.8252 11.2225 21.5494 11.2225C21.2737 11.2225 21.0264 11.2955 20.8074 11.4415C20.5966 11.5875 20.4182 11.8186 20.2722 12.1349L17.2433 18.6549C17.1298 18.9144 17.0933 19.1495 17.1338 19.3604C17.1744 19.5631 17.2798 19.7253 17.4501 19.847ZM20.3586 16.4531L21.5251 13.6675H21.5494L22.726 16.4531H20.3586ZM13.1263 19.7253C13.3209 19.9199 13.5966 20.0173 13.9535 20.0173C14.3265 20.0173 14.6063 19.9199 14.7928 19.7253C14.9793 19.5226 15.0726 19.2428 15.0726 18.886V13.1566H16.9823C17.2824 13.1566 17.5095 13.0796 17.6635 12.9255C17.8257 12.7633 17.9068 12.5363 17.9068 12.2443C17.9068 11.9443 17.8257 11.7172 17.6635 11.5631C17.5095 11.4091 17.2824 11.332 16.9823 11.332H10.9246C10.6245 11.332 10.3934 11.4091 10.2312 11.5631C10.0771 11.7172 10.0001 11.9443 10.0001 12.2443C10.0001 12.5363 10.0771 12.7633 10.2312 12.9255C10.3934 13.0796 10.6245 13.1566 10.9246 13.1566H12.8343V18.886C12.8343 19.2428 12.9317 19.5226 13.1263 19.7253ZM27.6069 20.0173C27.3231 20.0173 27.0879 19.9402 26.9014 19.7861C26.7149 19.6321 26.6054 19.4374 26.573 19.2023C26.5486 18.9671 26.6297 18.7279 26.8163 18.4846L29.0135 15.5826L26.8892 12.7674C26.7027 12.516 26.6216 12.2727 26.646 12.0375C26.6784 11.8024 26.7879 11.6077 26.9744 11.4537C27.1609 11.2996 27.3961 11.2225 27.6799 11.2225C27.9151 11.2225 28.1219 11.2793 28.3003 11.3928C28.4787 11.5064 28.6571 11.6888 28.8355 11.9402L30.2843 13.9529L31.7428 11.9402C31.9212 11.6807 32.0996 11.4983 32.278 11.3928C32.4564 11.2793 32.6632 11.2225 32.8984 11.2225C33.1903 11.2225 33.4295 11.2996 33.616 11.4537C33.8026 11.5996 33.908 11.7902 33.9323 12.0254C33.9648 12.2606 33.8837 12.5079 33.689 12.7674L31.5535 15.5838L33.7499 18.4846C33.9445 18.7279 34.0256 18.9671 33.9931 19.2023C33.9688 19.4374 33.8634 19.6321 33.6769 19.7861C33.4904 19.9402 33.2511 20.0173 32.9592 20.0173C32.7321 20.0173 32.5294 19.9646 32.351 19.8591C32.1726 19.7456 31.9901 19.5591 31.8036 19.2996L30.2842 17.1981L28.7747 19.2996C28.5882 19.5591 28.4057 19.7456 28.2273 19.8591C28.0489 19.9646 27.8421 20.0173 27.6069 20.0173Z" fill="#FDD17F"/>
<path fill-rule="evenodd" clip-rule="evenodd" d="M43 34C43 38.9706 38.9706 43 34 43C29.0294 43 25 38.9706 25 34C25 29.0294 29.0294 25 34 25C38.9706 25 43 29.0294 43 34ZM31.2727 31.2727C31.5363 31.0091 31.9637 31.0091 32.2273 31.2727L34 33.0454L35.7727 31.2727C36.0363 31.0091 36.4637 31.0091 36.7273 31.2727C36.9909 31.5363 36.9909 31.9637 36.7273 32.2273L34.9546 34L36.7272 35.7727C36.9908 36.0363 36.9908 36.4637 36.7272 36.7273C36.4636 36.9909 36.0362 36.9909 35.7726 36.7273L34 34.9546L32.2273 36.7273C31.9637 36.9909 31.5363 36.9909 31.2727 36.7273C31.0091 36.4637 31.0091 36.0363 31.2727 35.7727L33.0454 34L31.2727 32.2273C31.0091 31.9637 31.0091 31.5363 31.2727 31.2727Z" fill="#FFA400"/>
</svg>
