<svg width="56" height="56" viewBox="0 0 56 56" fill="none" xmlns="http://www.w3.org/2000/svg">
<path d="M37 34.3V37C37 38.08 36.28 38.8 35.2 38.8C34.12 38.8 33.4 38.08 33.4 37V34.3H22.6V37C22.6 38.08 21.88 38.8 20.8 38.8C19.72 38.8 19 38.08 19 37V34.3H15.4C14.14 34.3 12.88 33.94 11.8 33.4V40.6C11.8 43.66 14.14 46 17.2 46H38.8C41.86 46 44.2 43.66 44.2 40.6V33.4C43.12 33.94 41.86 34.3 40.6 34.3H37ZM44.2 17.2H37V15.4C37 12.34 34.66 10 31.6 10H24.4C21.34 10 19 12.34 19 15.4V17.2H11.8C10.72 17.2 10 17.92 10 19V26.2C10 29.26 12.34 31.6 15.4 31.6H40.6C43.66 31.6 46 29.26 46 26.2V19C46 17.92 45.28 17.2 44.2 17.2ZM33.4 17.2H22.6V15.4C22.6 14.32 23.32 13.6 24.4 13.6H31.6C32.68 13.6 33.4 14.32 33.4 15.4V17.2Z" fill="#FFA400"/>
</svg>
