<svg width="32" height="32" viewBox="0 0 32 32" fill="none" xmlns="http://www.w3.org/2000/svg">
    <path fill-rule="evenodd" clip-rule="evenodd"
          d="M16.1647 3.49512C9.16696 3.49512 3.49414 9.16794 3.49414 16.1657C3.49414 23.1635 9.16696 28.8363 16.1647 28.8363C23.1625 28.8363 28.8353 23.1635 28.8353 16.1657C28.8353 9.16794 23.1625 3.49512 16.1647 3.49512ZM19.7496 15.0254L20.0981 13.8375H18.6445C18.5827 13.5018 18.4727 13.1894 18.3146 12.9005C18.245 12.7709 18.1652 12.6487 18.075 12.5341L19.7496 12.5472L20.0981 11.3594H15.0755H14.8705H13.4559L13.1074 12.5063H14.522L15.3206 12.5125C15.9767 12.547 16.4725 12.7242 16.8078 13.0439C17.0355 13.259 17.1942 13.5235 17.2839 13.8375H13.4559L13.1074 15.0254H17.3201C17.2755 15.2292 17.2022 15.4101 17.0999 15.5681C16.9188 15.8446 16.6574 16.0528 16.3158 16.1928C15.9741 16.3293 15.5607 16.3976 15.0755 16.3976H13.2099L13.2304 17.2578L16.982 21.8454H18.5811V21.7635L15.1165 17.524H15.1472C16.0014 17.524 16.6882 17.3858 17.2075 17.1093C17.7303 16.8328 18.1095 16.4676 18.3453 16.0136C18.5073 15.7037 18.6144 15.3744 18.6667 15.0254H19.7496Z"
          fill="#FFA400"/>
    <path fill-rule="evenodd" clip-rule="evenodd"
          d="M6.99023 16.1645C6.99023 11.0972 11.0981 6.98926 16.1655 6.98926C21.2329 6.98926 25.3408 11.0972 25.3408 16.1645C25.3408 21.2319 21.2329 25.3398 16.1655 25.3398C11.0981 25.3398 6.99023 21.2319 6.99023 16.1645Z"
          stroke="#FDD17F" stroke-width="1.31075"/>
    <path d="M29.4004 3.02349C29.4004 2.81042 29.2277 2.6377 29.0146 2.6377L25.1755 2.6377C24.8318 2.6377 24.6597 3.05325 24.9027 3.29628L28.7418 7.13536C28.9848 7.3784 29.4004 7.20627 29.4004 6.86257L29.4004 3.02349Z"
          fill="#FFA400"/>
    <path d="M29.0166 29.4012C29.2296 29.4012 29.4023 29.2285 29.4023 29.0154L29.4023 25.1345C29.4023 24.7908 28.9868 24.6187 28.7438 24.8617L24.8629 28.7426C24.6198 28.9856 24.792 29.4012 25.1357 29.4012L29.0166 29.4012Z"
          fill="#FFA400"/>
    <path d="M2.64133 29.0156C2.64133 29.2286 2.81405 29.4014 3.02712 29.4014L6.75611 29.4014C7.09982 29.4014 7.27195 28.9858 7.02891 28.7428L3.29991 25.0138C3.05688 24.7707 2.64133 24.9429 2.64133 25.2866L2.64133 29.0156Z"
          fill="#FFA400"/>
    <path d="M3.02446 2.63858C2.8114 2.63858 2.63867 2.81131 2.63867 3.02438L2.63867 6.98463C2.63867 7.32834 3.05422 7.50046 3.29726 7.25743L7.25751 3.29717C7.50055 3.05414 7.32842 2.63858 6.98472 2.63858L3.02446 2.63858Z"
          fill="#FFA400"/>
</svg>
