<svg width="96" height="72" viewBox="0 0 96 72" fill="none" xmlns="http://www.w3.org/2000/svg">
<circle cx="9.75" cy="49.5" r="9.75" fill="#D1D1DB"/>
<circle cx="60.75" cy="35.25" r="9.75" fill="#FFA400"/>
<circle cx="35.25" cy="49.5" r="9.75" fill="#D1D1DB"/>
<circle cx="86.25" cy="49.5" r="9.75" fill="#D1D1DB"/>
<path d="M65.9622 12.0022C66.0425 12.0022 66.1228 12.0108 66.2009 12.0304C66.3116 12.0564 66.4201 12.0998 66.522 12.1627C67.0298 12.4774 67.186 13.1414 66.8714 13.6491C66.8367 13.7055 66.7954 13.7576 66.752 13.8053C66.7173 13.8379 66.6848 13.8726 66.6501 13.9051C63.7685 16.7086 61.6572 18.7027 61.0887 19.1736C60.9346 19.2994 60.6395 19.5294 60.275 19.4969C59.9365 19.4665 59.687 19.2213 59.5459 19.0542L54.3643 13.8878L54.2623 13.7858C53.9629 13.4386 53.9065 12.9244 54.1625 12.5121C54.3231 12.2539 54.5726 12.0868 54.8482 12.026C54.9111 12.0108 54.9762 12.0022 55.0413 12" fill="#003975"/>
</svg>
