<svg width="32" height="32" viewBox="0 0 32 32" fill="none" xmlns="http://www.w3.org/2000/svg">
    <path fill-rule="evenodd" clip-rule="evenodd"
          d="M5.78658 10.8096C4.06314 10.8096 2.66602 12.303 2.66602 14.1453V25.0624C2.66602 26.9047 4.06314 28.3982 5.78658 28.3982H26.2121C27.9356 28.3982 29.3327 26.9047 29.3327 25.0624V14.1453C29.3327 12.303 27.9356 10.8096 26.2121 10.8096H5.78658ZM13.9574 19.6044C13.9574 18.4763 14.8719 17.5618 16 17.5618C17.128 17.5618 18.0425 18.4763 18.0425 19.6044C18.0425 20.7324 17.128 21.6469 16 21.6469C14.8719 21.6469 13.9574 20.7324 13.9574 19.6044ZM16 16.2001C14.1198 16.2001 12.5957 17.7243 12.5957 19.6044C12.5957 21.4845 14.1198 23.0086 16 23.0086C17.8801 23.0086 19.4042 21.4845 19.4042 19.6044C19.4042 17.7243 17.8801 16.2001 16 16.2001ZM28.1973 15.6314C28.1973 16.1014 27.8162 16.4824 27.3462 16.4824H26.7788C24.742 16.4824 23.0909 14.8313 23.0909 12.7945C23.0909 12.3244 23.4719 11.9434 23.9419 11.9434C24.412 11.9434 24.793 12.3244 24.793 12.7945C24.793 13.8912 25.6821 14.7803 26.7788 14.7803H27.3462C27.8162 14.7803 28.1973 15.1613 28.1973 15.6314ZM27.3462 22.7236C27.8162 22.7236 28.1973 23.1047 28.1973 23.5747C28.1973 24.0447 27.8162 24.4258 27.3462 24.4258H26.7788C25.6821 24.4258 24.793 25.3148 24.793 26.4116C24.793 26.8816 24.412 27.2626 23.9419 27.2626C23.4719 27.2626 23.0909 26.8816 23.0909 26.4116C23.0909 24.3748 24.742 22.7236 26.7788 22.7236H27.3462ZM3.80078 15.6314C3.80078 16.1014 4.18182 16.4824 4.65185 16.4824H5.21922C7.25602 16.4824 8.90716 14.8313 8.90716 12.7945C8.90716 12.3244 8.52613 11.9434 8.0561 11.9434C7.58607 11.9434 7.20504 12.3244 7.20504 12.7945C7.20504 13.8912 6.31596 14.7803 5.21922 14.7803H4.65185C4.18182 14.7803 3.80078 15.1613 3.80078 15.6314ZM4.65185 22.7236C4.18182 22.7236 3.80078 23.1047 3.80078 23.5747C3.80078 24.0447 4.18182 24.4258 4.65185 24.4258H5.21922C6.31596 24.4258 7.20504 25.3148 7.20504 26.4116C7.20504 26.8816 7.58607 27.2626 8.0561 27.2626C8.52613 27.2626 8.90716 26.8816 8.90716 26.4116C8.90716 24.3748 7.25602 22.7236 5.21922 22.7236H4.65185Z"
          fill="#FFA400"/>
    <path fill-rule="evenodd" clip-rule="evenodd"
          d="M4.9375 8.25438C4.9375 7.78435 5.31853 7.40332 5.78856 7.40332H26.2141C26.6841 7.40332 27.0652 7.78435 27.0652 8.25438C27.0652 8.72441 26.6841 9.10545 26.2141 9.10545H5.78856C5.31853 9.10545 4.9375 8.72441 4.9375 8.25438Z"
          fill="#FDD17F"/>
    <path fill-rule="evenodd" clip-rule="evenodd"
          d="M7.20508 4.85106C7.20508 4.38103 7.58611 4 8.05614 4H23.9427C24.4127 4 24.7937 4.38103 24.7937 4.85106C24.7937 5.32109 24.4127 5.70213 23.9427 5.70213H8.05614C7.58611 5.70213 7.20508 5.32109 7.20508 4.85106Z"
          fill="#FDD17F"/>
</svg>
