<svg width="96" height="96" viewBox="0 0 96 96" fill="none" xmlns="http://www.w3.org/2000/svg">
<ellipse cx="49.8281" cy="48" rx="11.8857" ry="11.8857" fill="#FFA400"/>
<path d="M19.5146 19.3546L20.6678 18.4337C25.8122 14.3348 33.0758 14.3348 38.2202 18.4337L39.4258 19.3923C41.4851 21.5286 44.3681 22.8571 47.5506 22.8571C50.7331 22.8571 53.631 21.521 55.6978 19.3697L56.8809 18.4261C62.0253 14.3272 69.2889 14.3272 74.4334 18.4261L75.609 19.3621C77.6683 21.5135 80.5587 22.8496 83.7562 22.8496C90.0164 22.8496 95.0859 17.7392 95.0859 11.4286C95.0859 5.11795 90.0164 0.00754423 83.7562 0.00754395C80.5587 0.00754381 77.6683 1.35119 75.609 3.49499L74.5157 4.36309C69.3189 8.49971 61.9804 8.49971 56.7836 4.36308L55.6828 3.48745C53.6235 1.3361 50.7331 -1.93873e-06 47.5356 -2.07849e-06C44.3381 -2.21826e-06 41.4701 1.32854 39.4108 3.47234L38.2951 4.36308C33.0983 8.49971 25.7598 8.49971 20.5629 4.36308L19.4921 3.51009C17.4328 1.35119 14.5349 -3.521e-06 11.3299 -3.66109e-06C5.06976 -3.93473e-06 0.000221029 5.11039 0.000220753 11.421C0.000220477 17.7316 5.07725 22.842 11.3299 22.842C14.5424 22.842 17.4553 21.521 19.5146 19.3546Z" fill="#D1D1DB"/>
<path d="M19.8116 76.0284L18.8907 74.8752C14.7918 69.7308 14.7918 62.4672 18.8907 57.3228L19.8494 56.1171C21.9856 54.0579 23.3142 51.1749 23.3142 47.9924C23.3142 44.8099 21.9781 41.9119 19.8267 39.8452L18.8832 38.662C14.7843 33.5176 14.7843 26.254 18.8832 21.1096L19.8192 19.934C21.9705 17.8747 23.3066 14.9842 23.3066 11.7867C23.3066 5.52657 18.1962 0.457031 11.8856 0.457031C5.57498 0.457031 0.464576 5.52657 0.464576 11.7867C0.464576 14.9842 1.80822 17.8747 3.95202 19.934L4.82012 21.0272C8.95675 26.2241 8.95675 33.5626 4.82012 38.7594L3.94448 39.8602C1.79313 41.9194 0.457031 44.8099 0.457031 48.0074C0.457031 51.2049 1.78558 54.0728 3.92938 56.1321L4.82012 57.2479C8.95675 62.4447 8.95675 69.7832 4.82012 74.98L3.96712 76.0508C1.80823 78.1101 0.457031 81.0081 0.457031 84.213C0.457031 90.4732 5.56742 95.5427 11.878 95.5427C18.1887 95.5427 23.2991 90.4657 23.2991 84.213C23.2991 81.0006 21.9781 78.0876 19.8116 76.0284Z" fill="#D1D1DB"/>
<path d="M20.4286 92.4972L21.5818 91.5762C26.7263 87.4774 33.9899 87.4774 39.1343 91.5762L40.3399 92.5349C42.3991 94.6712 45.2821 95.9997 48.4646 95.9997C51.6471 95.9997 54.5451 94.6636 56.6118 92.5123L57.795 91.5687C62.9394 87.4698 70.203 87.4698 75.3474 91.5687L76.5231 92.5047C78.5823 94.6561 81.4728 95.9922 84.6703 95.9922C90.9305 95.9922 96 90.8818 96 84.5711C96 78.2605 90.9305 73.1501 84.6703 73.1501C81.4728 73.1501 78.5823 74.4938 76.5231 76.6376L75.4298 77.5057C70.233 81.6423 62.8945 81.6423 57.6976 77.5057L56.5969 76.63C54.5376 74.4787 51.6471 73.1426 48.4497 73.1426C45.2522 73.1426 42.3842 74.4711 40.3249 76.6149L39.2092 77.5057C34.0123 81.6423 26.6738 81.6423 21.477 77.5057L20.4062 76.6527C18.3469 74.4938 15.449 73.1426 12.244 73.1426C5.98383 73.1426 0.914284 78.253 0.914283 84.5636C0.914283 90.8742 5.99131 95.9846 12.244 95.9846C15.4565 95.9846 18.3694 94.6636 20.4286 92.4972Z" fill="#D1D1DB"/>
</svg>
