<svg width="100" height="96" viewBox="0 0 100 96" fill="none" xmlns="http://www.w3.org/2000/svg">
<path d="M49.9999 69.5859C42.7031 69.5859 36.7925 75.4965 36.7925 82.7932C36.7925 90.0899 42.7031 96.0004 49.9999 96.0004C57.2967 96.0004 63.2073 90.0899 63.2073 82.7932C63.2073 75.4965 57.2967 69.5859 49.9999 69.5859Z" fill="#E5E5EB"/>
<path d="M13.6835 69.5859C6.38665 69.5859 0.476074 75.4965 0.476074 82.7932C0.476074 90.0899 6.38665 96.0004 13.6835 96.0004C20.9803 96.0004 26.8909 90.0899 26.8909 82.7932C26.8909 75.4965 20.9803 69.5859 13.6835 69.5859Z" fill="#E5E5EB"/>
<path d="M86.3163 69.5859C79.0195 69.5859 73.1089 75.4965 73.1089 82.7932C73.1089 90.0899 79.0195 96.0004 86.3163 96.0004C93.6131 96.0004 99.5237 90.0899 99.5237 82.7932C99.5237 75.4965 93.6131 69.5859 86.3163 69.5859Z" fill="#E5E5EB"/>
<path d="M13.6835 34.792C6.38665 34.792 0.476074 40.7025 0.476074 47.9992C0.476074 55.2959 6.38665 61.2064 13.6835 61.2064C20.9803 61.2064 26.8909 55.2959 26.8909 47.9992C26.8909 40.7025 20.9803 34.792 13.6835 34.792Z" fill="#E5E5EB"/>
<path d="M49.9999 34.792C42.7031 34.792 36.7925 40.7025 36.7925 47.9992C36.7925 55.2959 42.7031 61.2064 49.9999 61.2064C57.2967 61.2064 63.2073 55.2959 63.2073 47.9992C63.2073 40.7025 57.2967 34.792 49.9999 34.792Z" fill="#FFA400"/>
<path d="M86.3163 34.792C79.0195 34.792 73.1089 40.7025 73.1089 47.9992C73.1089 55.2959 79.0195 61.2064 86.3163 61.2064C93.6131 61.2064 99.5237 55.2959 99.5237 47.9992C99.5237 40.7025 93.6131 34.792 86.3163 34.792Z" fill="#E5E5EB"/>
<path d="M13.6835 0C6.38665 0 0.476074 5.91046 0.476074 13.2072C0.476074 20.5039 6.38665 26.4144 13.6835 26.4144C20.9803 26.4144 26.8909 20.5039 26.8909 13.2072C26.8909 5.91046 20.9803 0 13.6835 0Z" fill="#E5E5EB"/>
<path d="M50.7616 0C43.4648 0 37.5542 5.91046 37.5542 13.2072C37.5542 20.5039 43.4648 26.4144 50.7616 26.4144C58.0584 26.4144 63.969 20.5039 63.969 13.2072C63.969 5.91046 58.0584 0 50.7616 0Z" fill="#E5E5EB"/>
<path d="M90.8053 23.961C90.9195 24.0753 91.049 24.1743 91.1861 24.2581C91.3841 24.3799 91.5974 24.4713 91.8335 24.5246C92.9989 24.7912 94.1642 24.0677 94.4384 22.8947C94.4689 22.7652 94.4841 22.6357 94.4917 22.5063C94.4917 22.4072 94.4917 22.3158 94.4917 22.2168C94.3394 14.1432 94.1414 8.30891 93.9967 6.8389C93.9586 6.44284 93.8595 5.69642 93.2883 5.22419C92.7627 4.79004 92.062 4.78241 91.6202 4.82811L76.92 4.88143H76.6305C75.7089 4.9576 74.9092 5.61263 74.6883 6.55709C74.5512 7.15119 74.673 7.74528 74.9777 8.21751C75.0462 8.33176 75.13 8.43075 75.2214 8.52977" fill="#003975"/>
</svg>
