<svg width="56" height="56" viewBox="0 0 56 56" fill="none" xmlns="http://www.w3.org/2000/svg">
<path d="M28.2017 11.0006C27.7705 10.99 27.3479 11.1219 26.9994 11.3758L11.8077 22.4455C10.2772 23.5638 11.0666 25.9871 12.9622 25.9893H43.5101C45.4137 25.9899 46.2014 23.5507 44.6569 22.4379L29.2987 11.3701C28.9785 11.1393 28.5962 11.0105 28.2017 11.0006Z" fill="#FFA400"/>
<path d="M15.2131 29.9062V40.7539H13.4192C12.5845 40.7539 11.832 41.754 11.832 42.9192C11.832 44.0011 12.5845 45.0003 13.4192 45.0003H43.0481C43.9663 45.0003 44.6353 44.0011 44.6353 42.9192C44.6353 41.754 43.9663 40.7539 43.0481 40.7539H41.2542V29.9062H35.369V40.7539H31.4481V29.9062H25.0192V40.7539H21.0983V29.9062H15.2131Z" fill="#FFA400"/>
</svg>
