<svg width="32" height="32" viewBox="0 0 32 32" fill="none" xmlns="http://www.w3.org/2000/svg">
    <path fill-rule="evenodd" clip-rule="evenodd"
          d="M15.9801 24.0608C20.4974 24.0608 24.1594 20.3988 24.1594 15.8815C24.1594 11.3642 20.4974 7.70215 15.9801 7.70215C11.4628 7.70215 7.80078 11.3642 7.80078 15.8815C7.80078 20.3988 11.4628 24.0608 15.9801 24.0608ZM19.1805 15.0268L19.5025 13.9284H18.1596C18.1024 13.6179 18.0008 13.3291 17.8548 13.0619C17.7905 12.942 17.7167 12.829 17.6334 12.723L19.1805 12.7352L19.5025 11.6367H14.8623H14.6729H13.3661L13.0442 12.6973H14.351L15.0888 12.7031C15.695 12.735 16.153 12.8988 16.4627 13.1945C16.6731 13.3933 16.8197 13.638 16.9026 13.9284H13.3661L13.0442 15.0268H16.936C16.8949 15.2153 16.8271 15.3826 16.7326 15.5287C16.5653 15.7844 16.3238 15.977 16.0082 16.1064C15.6925 16.2326 15.3106 16.2958 14.8623 16.2958H13.1388L13.1578 17.0912L16.6237 21.3337H18.101V21.2579L14.9002 17.3374H14.9286C15.7178 17.3374 16.3522 17.2096 16.832 16.9539C17.315 16.6982 17.6654 16.3605 17.8832 15.9407C18.0328 15.6542 18.1318 15.3496 18.1801 15.0268H19.1805Z"
          fill="#FFA400"/>
    <path fill-rule="evenodd" clip-rule="evenodd"
          d="M26.4209 7.78156C28.2181 10.0985 29.1935 12.9475 29.1935 15.8797H27.3437C27.3437 13.358 26.5048 10.9079 24.9592 8.9153C23.4136 6.92273 21.2491 5.5009 18.8066 4.87377C16.3641 4.24664 13.7823 4.44982 11.468 5.45133C9.15363 6.45284 7.23818 8.19576 6.02332 10.4056L4.40234 9.51445C5.81498 6.94488 8.04224 4.91823 10.7333 3.75368C13.4244 2.58914 16.4265 2.35288 19.2666 3.0821C22.1068 3.81133 24.6236 5.46461 26.4209 7.78156ZM27.8787 18.6135C28.0773 18.8342 28.4234 18.8342 28.622 18.6135L30.3306 16.715C30.6202 16.3933 30.3919 15.8805 29.959 15.8805H26.5417C26.1089 15.8805 25.8805 16.3933 26.1701 16.715L27.8787 18.6135Z"
          fill="#FDD17F"/>
    <path fill-rule="evenodd" clip-rule="evenodd"
          d="M5.57914 23.8151C3.78194 21.4982 2.80652 18.6492 2.80652 15.7169L4.6563 15.7169C4.6563 18.2387 5.49516 20.6888 7.04076 22.6814C8.58636 24.674 10.7509 26.0958 13.1934 26.7229C15.6359 27.35 18.2177 27.1469 20.532 26.1453C22.8464 25.1438 24.7618 23.4009 25.9767 21.1911L27.5977 22.0822C26.185 24.6518 23.9578 26.6785 21.2667 27.843C18.5756 29.0075 15.5735 29.2438 12.7334 28.5146C9.89323 27.7854 7.37635 26.1321 5.57914 23.8151ZM4.12129 12.9832C3.92267 12.7625 3.57662 12.7625 3.37799 12.9832L1.66938 14.8817C1.37979 15.2034 1.60814 15.7161 2.04102 15.7161L5.45826 15.7161C5.89114 15.7161 6.11949 15.2034 5.82991 14.8817L4.12129 12.9832Z"
          fill="#FDD17F"/>
</svg>
