<svg width="712" height="712" viewBox="0 0 712 712" fill="none" xmlns="http://www.w3.org/2000/svg">
<path d="M599.863 491.511L585.612 489.753C555.156 486.597 526.715 473.056 505.064 451.405C483.414 429.755 469.873 401.313 466.716 370.858L465.349 356.215C465.666 341.6 463.078 327.067 457.735 313.46C452.405 299.884 444.33 287.555 434.018 277.242C423.705 266.929 411.375 258.855 397.799 253.524C384.192 248.181 369.659 245.593 355.044 245.91L340.597 244.739C310.141 241.582 281.7 228.041 260.049 206.39C238.399 184.74 224.858 156.298 221.701 125.843L220.139 111.396C220.854 89.7064 214.964 68.3114 203.25 50.0433C191.536 31.7752 174.551 17.4955 154.541 9.09466C134.328 0.807507 112.111 -1.2987 90.7009 3.04248C69.0688 7.60369 49.2292 18.3548 33.5966 33.9874C17.9641 49.6199 7.21295 69.4596 2.65174 91.0917C-1.68944 112.502 0.416741 134.719 8.7039 154.932C17.1048 174.941 31.3845 191.927 49.6526 203.641C67.9207 215.355 89.3156 221.244 111.005 220.53L124.476 221.896C155.227 225.096 183.942 238.775 205.803 260.636C227.665 282.498 241.343 311.213 244.543 341.964L245.91 355.434C245.577 370.259 248.233 384.999 253.719 398.776C259.05 412.351 267.124 424.681 277.437 434.994C287.749 445.307 300.079 453.381 313.655 458.712C327.337 464.013 341.938 466.535 356.606 466.13L370.272 467.692C401.079 470.742 429.879 484.371 451.769 506.262C473.66 528.153 487.29 556.952 490.339 587.759L491.705 600.84C490.891 622.546 496.677 643.988 508.3 662.338C519.931 680.607 536.904 694.854 556.913 703.141C577.165 711.533 599.456 713.708 620.949 709.388C642.675 704.525 662.496 693.392 677.956 677.371C693.614 661.81 704.343 641.983 708.802 620.363C713.331 598.882 711.15 576.528 702.555 556.327C694.268 536.318 680.021 519.345 661.752 507.715C643.402 496.092 621.96 490.306 600.254 491.12" fill="#ECECF7"/>
</svg>
