<svg width="250" height="186" viewBox="0 0 250 186" fill="none" xmlns="http://www.w3.org/2000/svg">
<path d="M0.670997 74.1055C0.691991 73.6859 0.723168 73.3164 0.744178 72.8969C2.42491 39.0765 4.04314 14.6658 4.84788 8.48405C5.0418 6.8362 5.56915 3.72057 8.00359 1.83735C10.2577 0.0936279 13.2277 0.129306 15.047 0.392575L76.7507 2.52083L77.9505 2.54318C81.7794 2.98019 85.0926 5.80362 85.883 9.80087C86.377 12.2992 85.771 14.7554 84.4463 16.7307C84.1153 17.1595 83.7843 17.5884 83.3933 17.9772C81.8587 19.9421 71.0933 30.6896 74.7157 46.3798C80.5841 72.1136 110.899 111.6 180.687 111.767C191.197 111.817 212.625 116.614 226.215 129.087C249.049 147.831 260.793 179.88 249.866 211.894C245.496 224.752 238.417 236.795 228.347 245.276C218.935 254.458 205.702 260.086 192.445 263.227C159.508 270.934 128.892 256.74 112.441 232.164C101.316 217.438 98.6286 195.696 99.6236 185.219C106.279 115.837 71.8749 84.3235 44.073 76.9971C43.4734 76.8561 25.3404 74.2633 16.0554 80.6683C15.5743 81.1269 15.0334 81.5454 14.4226 81.8739C13.5815 82.3517 12.6604 82.6896 11.6599 82.8875C6.70769 83.8667 1.91526 80.6608 0.937092 75.7142C0.828407 75.1646 0.769891 74.6051 0.771139 74.0856" fill="#FFBA35"/>
</svg>
