<svg width="1280" height="800" viewBox="0 0 1920 960" fill="none" xmlns="http://www.w3.org/2000/svg">
<path opacity="0.03" d="M457.63 1386.26L473.615 1339.73C508.233 1239.25 575.211 1156.8 663.731 1105.69C752.25 1054.58 857.145 1037.81 961.474 1058.07L1011.73 1067.95C1060.34 1084.42 1110.81 1090.7 1160.13 1086.41C1209.45 1082.12 1256.62 1067.35 1298.83 1042.99C1341.03 1018.62 1377.4 985.156 1405.78 944.585C1434.16 904.014 1453.95 857.166 1464 806.834L1479.29 759.106C1513.91 658.624 1580.89 576.172 1669.41 525.065C1757.93 473.958 1862.82 457.18 1967.15 477.441L2016.33 487.146C2088.63 511.715 2164.51 513.592 2234.24 492.534C2303.96 471.475 2364.34 428.444 2407.63 368.962C2450.91 309.481 2475.13 236.263 2477.18 158.705C2479.23 81.1482 2459 2.79039 2419.11 -66.3109C2379.21 -135.412 2321.46 -192.104 2253.28 -229.111C2185.09 -266.117 2109.57 -281.75 2036.41 -274.003C1963.25 -266.255 1895.8 -235.48 1842.7 -185.629C1789.6 -135.777 1753.29 -69.1236 1738.41 5.77819L1723.32 49.6606C1688.41 151.199 1620.77 234.523 1531.35 286.152C1441.92 337.781 1335.94 354.695 1230.56 334.157L1184.83 325.391C1136.22 308.922 1085.75 302.645 1036.42 306.935C987.097 311.224 939.928 325.991 897.725 350.357C855.523 374.723 819.149 408.188 790.773 448.76C762.396 489.331 742.596 536.178 732.553 586.51L717.08 631.411C682.225 732.943 614.621 816.265 525.22 867.881C435.819 919.496 329.857 936.382 224.501 915.802L179.842 907.216C107.491 882.343 31.473 880.213 -38.4256 901.1C-108.324 921.988 -168.905 964.937 -212.368 1024.42C-255.832 1083.9 -280.189 1157.19 -282.305 1234.86C-284.422 1312.53 -264.2 1391.02 -224.243 1460.23C-184.286 1529.44 -126.422 1586.19 -58.1012 1623.19C10.2201 1660.2 85.872 1675.75 159.117 1667.85C232.361 1659.95 299.847 1628.96 352.885 1578.87C405.923 1528.78 442.087 1461.88 456.722 1386.79" fill="white"/>
</svg>
