<svg width="48" height="48" viewBox="0 0 48 48" fill="none" xmlns="http://www.w3.org/2000/svg">
<path fill-rule="evenodd" clip-rule="evenodd" d="M6.9032 36.9028C6.40266 37.1362 5.80519 36.9205 5.59709 36.4089C4.61869 34.0036 4.11836 31.4315 4.12308 28.8367L11.2669 33.3092C11.312 33.44 11.3592 33.5701 11.4083 33.6996C11.6043 34.2159 11.3915 34.8099 10.891 35.0433L6.9032 36.9028ZM12.3189 22.1187C12.4296 21.9251 12.5452 21.7341 12.6657 21.5458C13.8999 19.6159 15.6016 18.0291 17.6128 16.9325C19.6241 15.8359 21.8798 15.2651 24.1705 15.2731C26.4613 15.2811 28.7129 15.8676 30.7165 16.9782C32.72 18.0888 34.4106 19.6875 35.6313 21.6259C36.852 23.5644 37.5633 25.7797 37.6991 28.0665C37.8152 30.0198 37.5082 31.971 36.8038 33.7883C36.6042 34.3032 36.8129 34.8986 37.3117 35.1355L41.2864 37.0228C41.7853 37.2597 42.3843 37.0482 42.596 36.538C43.7558 33.7429 44.2678 30.7165 44.0878 27.6869C43.8881 24.3241 42.8421 21.0662 41.0469 18.2155C39.2518 15.3649 36.7656 13.0139 33.8192 11.3807C30.8728 9.74743 27.5616 8.88493 24.1929 8.87317C20.8241 8.86141 17.5069 9.70078 14.5492 11.3134C11.5915 12.926 9.089 15.2596 7.274 18.0976C6.96083 18.5873 6.66988 19.0893 6.40166 19.602C6.44899 19.6203 6.49619 19.6395 6.54323 19.6595L12.3189 22.1187Z" fill="#FDD17F"/>
<path d="M3.6728 25.5869L21.0752 36.4819C21.979 37.0477 23.0847 37.1907 24.1027 36.8734C26.0365 36.2707 27.1115 34.2105 26.4998 32.2796C26.1778 31.2631 25.4281 30.4379 24.447 30.0202L5.55643 21.9771C4.57583 21.5596 3.43905 21.9664 2.946 22.9113C2.45295 23.8561 2.76946 25.0213 3.6728 25.5869Z" fill="#FFA400"/>
</svg>
