<svg width="32" height="32" viewBox="0 0 32 32" fill="none" xmlns="http://www.w3.org/2000/svg">
    <path d="M23.0585 3.05752C22.668 3.44804 22.668 4.07658 22.668 5.33366V22.667C22.668 23.9241 22.668 24.5526 23.0585 24.9431C23.449 25.3337 24.0776 25.3337 25.3346 25.3337C26.5917 25.3337 27.2203 25.3337 27.6108 24.9431C28.0013 24.5526 28.0013 23.9241 28.0013 22.667V5.33366C28.0013 4.07658 28.0013 3.44804 27.6108 3.05752C27.2203 2.66699 26.5917 2.66699 25.3346 2.66699C24.0776 2.66699 23.449 2.66699 23.0585 3.05752Z"
          fill="#FFA400"/>
    <path d="M4.39052 16.2734C4 16.5467 4 16.9867 4 17.8667V23.4667C4 24.3466 4 24.7866 4.39052 25.06C4.78105 25.3333 5.40959 25.3333 6.66667 25.3333C7.92375 25.3333 8.55229 25.3333 8.94281 25.06C9.33333 24.7866 9.33333 24.3466 9.33333 23.4667V17.8667C9.33333 16.9867 9.33333 16.5467 8.94281 16.2734C8.55229 16 7.92375 16 6.66667 16C5.40959 16 4.78105 16 4.39052 16.2734Z"
          fill="#FFA400"/>
    <path d="M4 28.334C3.44772 28.334 3 28.7817 3 29.334C3 29.8863 3.44772 30.334 4 30.334H28C28.5523 30.334 29 29.8863 29 29.334C29 28.7817 28.5523 28.334 28 28.334H4Z"
          fill="#FFA400"/>
    <path d="M13.332 11.6197C13.332 10.5422 13.332 10.0035 13.7226 9.66872C14.1131 9.33398 14.7416 9.33398 15.9987 9.33398C17.2558 9.33398 17.8843 9.33398 18.2748 9.66872C18.6654 10.0035 18.6654 10.5422 18.6654 11.6197V23.0483C18.6654 24.1258 18.6654 24.6645 18.2748 24.9993C17.8843 25.334 17.2558 25.334 15.9987 25.334C14.7416 25.334 14.1131 25.334 13.7226 24.9993C13.332 24.6645 13.332 24.1258 13.332 23.0483V11.6197Z"
          fill="#FDD17F"/>
</svg>
