<svg width="208" height="148" viewBox="0 0 208 148" fill="none" xmlns="http://www.w3.org/2000/svg">
<path opacity="0.2" d="M60.1401 16.9182C60.1401 7.57776 67.5712 4.80267e-05 76.731 4.7226e-05C85.8907 4.64252e-05 93.3125 7.56818 93.3125 16.9182C93.3125 22.5799 90.5787 27.5998 86.3793 30.6653C80.6298 39.019 80.6392 50.2371 86.4262 58.5716L86.3981 58.5716C90.5881 61.6467 93.3125 66.6475 93.3125 72.3092C93.3125 77.9709 89.7331 81.7837 86.6329 86.0372C81.3156 93.3371 80.5734 108.914 86.2477 117.239C90.5223 120.295 93.3125 125.353 93.3125 131.082C93.3125 140.422 85.8907 148 76.731 148C67.5712 148 60.1401 140.422 60.1401 131.082C60.1401 125.449 62.8364 120.467 66.9888 117.392L66.9512 117.392C72.7477 109.029 71.4982 95.9428 66.9512 86.0372C65.3541 82.5501 60.1401 77.9613 60.1401 72.3092C60.1401 66.657 62.8739 61.6467 67.0545 58.5716L67.0263 58.5716C72.804 50.2371 72.8228 39.019 67.0733 30.6653C62.8739 27.5998 60.1401 22.5799 60.1401 16.9182Z" fill="#FFBA35"/>
<path opacity="0.2" d="M190.902 54.457C200.243 54.457 207.812 62.0289 207.812 71.3622C207.812 80.6954 200.243 88.2673 190.902 88.2673C185.23 88.2673 180.219 85.4817 177.153 81.2028C168.798 75.3444 157.579 75.3539 149.243 81.2506L149.243 81.2219C146.177 85.4913 141.166 88.2673 135.504 88.2673C129.841 88.2673 126.028 84.6202 121.774 81.4613C114.473 76.0432 98.894 75.2869 90.568 81.0688C87.5116 85.4243 82.4528 88.2674 76.7232 88.2674C67.3816 88.2674 59.8125 80.705 59.8125 71.3622C59.8125 62.0194 67.3816 54.457 76.7232 54.457C82.3569 54.457 87.3391 57.2044 90.4147 61.4354L90.4147 61.3971C98.779 67.3034 111.867 66.0303 121.774 61.3971C125.261 59.7698 129.851 54.457 135.504 54.457C141.156 54.457 146.167 57.2426 149.243 61.5024L149.243 61.4737C157.588 67.3608 168.798 67.38 177.153 61.5216C180.219 57.2426 185.239 54.457 190.902 54.457Z" fill="#FFBA35"/>
<path opacity="0.2" d="M131.902 -2.29204e-05C141.243 -2.45537e-05 148.812 7.57188 148.812 16.9051C148.812 26.2384 141.243 33.8103 131.902 33.8103C126.23 33.8103 121.219 31.0247 118.153 26.7457C109.798 20.8873 98.5785 20.8969 90.2429 26.7936L90.2429 26.7649C87.177 31.0343 82.166 33.8103 76.5036 33.8103C70.8411 33.8103 67.0278 30.1632 62.7738 27.0042C55.4729 21.5861 39.894 20.8299 31.568 26.6117C28.5116 30.9673 23.4528 33.8103 17.7232 33.8103C8.38161 33.8103 0.812505 26.248 0.812503 16.9052C0.812501 7.56234 8.38161 -1.32342e-06 17.7232 -2.95676e-06C23.3569 -3.94179e-06 28.3391 2.74732 31.4147 6.9784L31.4147 6.94011C39.779 12.8464 52.8669 11.5732 62.7738 6.9401C66.2613 5.31277 70.8507 -1.22459e-05 76.5036 -1.32342e-05C82.1564 -1.42226e-05 87.1674 2.7856 90.2429 7.0454L90.2429 7.01668C98.5881 12.9038 109.798 12.923 118.153 7.06454C121.219 2.7856 126.239 -2.19303e-05 131.902 -2.29204e-05Z" fill="#FFBA35"/>
</svg>
