<svg width="148" height="148" viewBox="0 0 148 148" fill="none" xmlns="http://www.w3.org/2000/svg">
<path opacity="0.2" d="M131.082 0.328569C140.422 0.32857 148 7.75972 148 16.9195C148 26.0792 140.432 33.501 131.082 33.501C125.42 33.501 120.4 30.7671 117.335 26.5677C108.981 20.8182 97.763 20.8276 89.4284 26.6147L89.4284 26.5865C86.3533 30.7765 81.3526 33.501 75.6908 33.501C70.0291 33.501 66.2163 29.9216 61.9628 26.8214C54.663 21.504 39.086 20.7619 30.7611 26.4362C27.7051 30.7108 22.6469 33.501 16.9181 33.501C7.57771 33.501 3.24415e-07 26.0792 7.24801e-07 16.9195C1.12519e-06 7.75971 7.57771 0.328564 16.9181 0.328564C22.5511 0.328565 27.5327 3.02483 30.6078 7.17725L30.6078 7.13966C38.9711 12.9361 52.0572 11.6867 61.9628 7.13966C65.4499 5.54258 70.0387 0.328567 75.6908 0.328567C81.343 0.328567 86.3533 3.0624 89.4284 7.24301L89.4284 7.21482C97.763 12.9925 108.981 13.0113 117.335 7.2618C120.4 3.06241 125.42 0.328569 131.082 0.328569Z" fill="#FFBA35"/>
<path opacity="0.2" d="M93.543 131.089C93.543 140.431 85.9711 148 76.6378 148C67.3045 148 59.7326 140.431 59.7326 131.089C59.7326 125.417 62.5183 120.406 66.7972 117.34C72.6556 108.986 72.646 97.766 66.7493 89.4304L66.778 89.4304C62.5087 86.3645 59.7326 81.3535 59.7326 75.6911C59.7326 70.0286 63.3798 66.2153 66.5387 61.9613C71.9568 54.6605 72.713 39.0815 66.9312 30.7555C62.5757 27.6991 59.7326 22.6403 59.7326 16.9107C59.7326 7.56911 67.295 1.14734e-06 76.6378 7.38948e-07C85.9806 3.3056e-07 93.543 7.56911 93.543 16.9107C93.543 22.5444 90.7956 27.5266 86.5646 30.6022L86.6029 30.6022C80.6966 38.9665 81.9697 52.0544 86.6029 61.9613C88.2302 65.4488 93.543 70.0382 93.543 75.6911C93.543 81.3439 90.7574 86.3549 86.4976 89.4304L86.5263 89.4304C80.6391 97.7756 80.62 108.986 86.4784 117.34C90.7573 120.406 93.543 125.427 93.543 131.089Z" fill="#FFBA35"/>
</svg>
