<svg width="48" height="48" viewBox="0 0 48 48" fill="none" xmlns="http://www.w3.org/2000/svg">
<path fill-rule="evenodd" clip-rule="evenodd" d="M23.974 36.0907C30.75 36.0907 36.243 30.5977 36.243 23.8217C36.243 17.0457 30.75 11.5527 23.974 11.5527C17.1981 11.5527 11.7051 17.0457 11.7051 23.8217C11.7051 30.5977 17.1981 36.0907 23.974 36.0907ZM28.8938 22.3015L29.3768 20.6538H27.3624C27.2767 20.188 27.1243 19.7548 26.9052 19.354C26.8088 19.1742 26.6982 19.0047 26.5732 18.8458L28.8938 18.864L29.3768 17.2163H22.4165H22.1325H20.1722L19.6893 18.8072H21.6495L22.7562 18.8159C23.6655 18.8637 24.3525 19.1094 24.8171 19.5529C25.1326 19.8512 25.3526 20.2182 25.477 20.6538H20.1722L19.6893 22.3015H25.527C25.4653 22.5841 25.3637 22.8351 25.2219 23.0543C24.971 23.4379 24.6088 23.7267 24.1353 23.9208C23.6618 24.1102 23.0889 24.2049 22.4165 24.2049H19.8313L19.8597 25.3981L25.0586 31.7617H27.2745V31.6481L22.4734 25.7674H22.516C23.6997 25.7674 24.6514 25.5756 25.3711 25.1921C26.0955 24.8086 26.6211 24.302 26.9478 23.6722C27.1723 23.2425 27.3208 22.7856 27.3932 22.3015H28.8938Z" fill="#FDD17F"/>
<path fill-rule="evenodd" clip-rule="evenodd" d="M39.6354 11.6718C42.3312 15.1473 43.7944 19.4207 43.7944 23.8191H41.0197C41.0197 20.0365 39.7614 16.3613 37.443 13.3725C35.1246 10.3836 31.8778 8.25087 28.2141 7.31017C24.5503 6.36946 20.6776 6.67425 17.2061 8.17651C13.7346 9.67877 10.8614 12.2932 9.03913 15.6079L6.60767 14.2712C8.72661 10.4168 12.0675 7.37685 16.1042 5.63004C20.1408 3.88322 24.6439 3.52883 28.9041 4.62266C33.1643 5.7165 36.9396 8.19642 39.6354 11.6718ZM42.0061 28.1262C42.2047 28.3469 42.5508 28.3469 42.7494 28.1262L45.8736 24.6548C46.1632 24.333 45.9349 23.8203 45.502 23.8203H39.2535C38.8206 23.8203 38.5922 24.333 38.8818 24.6548L42.0061 28.1262Z" fill="#FFA400"/>
<path fill-rule="evenodd" clip-rule="evenodd" d="M8.33502 35.7227C5.63921 32.2473 4.17609 27.9738 4.17609 23.5754L6.95076 23.5754C6.95076 27.358 8.20905 31.0332 10.5274 34.0221C12.8458 37.0109 16.0926 39.1437 19.7564 40.0844C23.4202 41.0251 27.2928 40.7203 30.7643 39.218C34.2359 37.7158 37.109 35.1014 38.9313 31.7866L41.3628 33.1233C39.2438 36.9777 35.903 40.0177 31.8663 41.7645C27.8296 43.5113 23.3266 43.8657 19.0664 42.7719C14.8062 41.678 11.0308 39.1981 8.33502 35.7227ZM5.96437 19.2683C5.76575 19.0476 5.4197 19.0476 5.22108 19.2683L2.09681 22.7397C1.80722 23.0615 2.03557 23.5742 2.46845 23.5742L8.71699 23.5742C9.14988 23.5742 9.37823 23.0615 9.08864 22.7397L5.96437 19.2683Z" fill="#FFA400"/>
</svg>
