<svg width="99" height="96" viewBox="0 0 99 96" fill="none" xmlns="http://www.w3.org/2000/svg">
<path d="M19.6562 76.298L18.7264 75.1337C14.5881 69.9398 14.5881 62.6064 18.7264 57.4125L19.6943 56.1953C21.8511 54.1162 23.1924 51.2055 23.1924 47.9924C23.1924 44.7793 21.8435 41.8535 19.6714 39.7669L18.7188 38.5724C14.5805 33.3785 14.5805 26.045 18.7188 20.8512L19.6638 19.6642C21.8358 17.5851 23.1848 14.6669 23.1848 11.4387C23.1848 5.11829 18.0252 0 11.6539 0C5.28264 0 0.123096 5.11829 0.123096 11.4387C0.123096 14.6669 1.47966 17.5851 3.64408 19.6642L4.52052 20.768C8.69692 26.0148 8.69692 33.4238 4.52052 38.6707L3.63646 39.782C1.46442 41.8611 0.115479 44.7793 0.115479 48.0076C0.115479 51.2358 1.4568 54.1314 3.62121 56.2104L4.52052 57.3369C8.69692 62.5837 8.69692 69.9928 4.52052 75.2396L3.65932 76.3207C1.47966 78.3998 0.115479 81.3256 0.115479 84.5613C0.115479 90.8817 5.27501 96 11.6463 96C18.0176 96 23.1772 90.8742 23.1772 84.5613C23.1772 81.318 21.8435 78.3771 19.6562 76.298Z" fill="#D1D1DB"/>
<circle cx="11.6542" cy="84.4613" r="11.5385" fill="#FFA400"/>
<path d="M57.5024 76.298L56.5726 75.1337C52.4343 69.9398 52.4343 62.6064 56.5726 57.4125L57.5405 56.1953C59.6973 54.1162 61.0386 51.2055 61.0386 47.9924C61.0386 44.7793 59.6896 41.8535 57.5176 39.7669L56.565 38.5724C52.4267 33.3785 52.4267 26.045 56.565 20.8512L57.51 19.6642C59.682 17.5851 61.031 14.6669 61.031 11.4387C61.031 5.11829 55.8714 0 49.5001 0C43.1288 0 37.9693 5.11829 37.9693 11.4387C37.9693 14.6669 39.3259 17.5851 41.4903 19.6642L42.3667 20.768C46.5431 26.0148 46.5431 33.4238 42.3667 38.6707L41.4826 39.782C39.3106 41.8611 37.9617 44.7793 37.9617 48.0076C37.9617 51.2358 39.303 54.1314 41.4674 56.2104L42.3667 57.3369C46.5431 62.5837 46.5431 69.9928 42.3667 75.2396L41.5055 76.3207C39.3259 78.3998 37.9617 81.3256 37.9617 84.5613C37.9617 90.8817 43.1212 96 49.4925 96C55.8638 96 61.0233 90.8742 61.0233 84.5613C61.0233 81.318 59.6896 78.3771 57.5024 76.298Z" fill="#D1D1DB"/>
<circle cx="49.5001" cy="84.4613" r="11.5385" fill="#FFA400"/>
<path d="M95.3486 76.298L94.4188 75.1337C90.2805 69.9398 90.2805 62.6064 94.4188 57.4125L95.3867 56.1953C97.5435 54.1162 98.8848 51.2055 98.8848 47.9924C98.8848 44.7793 97.5358 41.8535 95.3638 39.7669L94.4112 38.5724C90.2729 33.3785 90.2729 26.045 94.4112 20.8512L95.3562 19.6642C97.5282 17.5851 98.8772 14.6669 98.8772 11.4387C98.8772 5.11829 93.7176 0 87.3463 0C80.975 0 75.8155 5.11829 75.8155 11.4387C75.8155 14.6669 77.172 17.5851 79.3365 19.6642L80.2129 20.768C84.3893 26.0148 84.3893 33.4238 80.2129 38.6707L79.3288 39.782C77.1568 41.8611 75.8079 44.7793 75.8079 48.0076C75.8079 51.2358 77.1492 54.1314 79.3136 56.2104L80.2129 57.3369C84.3893 62.5837 84.3893 69.9928 80.2129 75.2396L79.3517 76.3207C77.172 78.3998 75.8079 81.3256 75.8079 84.5613C75.8079 90.8817 80.9674 96 87.3387 96C93.71 96 98.8695 90.8742 98.8695 84.5613C98.8695 81.318 97.5358 78.3771 95.3486 76.298Z" fill="#D1D1DB"/>
<circle cx="87.3463" cy="84.4613" r="11.5385" fill="#FFA400"/>
</svg>
