<svg width="154" height="148" viewBox="0 0 154 148" fill="none" xmlns="http://www.w3.org/2000/svg">
<g id="Group 1000001872" opacity="0.7">
<path id="Vector" opacity="0.2" d="M131.081 33.8103C140.422 33.8103 148 26.2459 148 16.91C148 7.57406 140.431 0 131.081 0C125.419 0 120.398 2.78641 117.333 7.06657C108.979 12.9266 97.7597 12.9171 89.4246 7.01869V7.04741C86.3589 2.77683 81.3483 0 75.6862 0C70.0241 0 66.211 3.64819 61.9573 6.80803C54.6569 12.2276 39.079 12.9841 30.7535 7.20062C27.6973 2.84386 22.6388 0 16.9096 0C7.56862 0 0 7.56448 0 16.91C0 26.2554 7.56862 33.8103 16.9096 33.8103C22.543 33.8103 27.5248 31.0622 30.6002 26.83V26.8683C38.964 20.9603 52.051 22.2338 61.9573 26.8683C65.4446 28.4961 70.0336 33.8103 75.6862 33.8103C81.3387 33.8103 86.3493 31.0335 89.4246 26.7629V26.7917C97.7693 20.9029 108.979 20.8837 117.333 26.7438C120.398 31.0144 125.419 33.8103 131.081 33.8103Z" fill="#4D4DF1"/>
<path id="Vector_2" opacity="0.2" d="M59.3276 131.082C59.3276 140.422 66.7587 148 75.9185 148C85.0782 148 92.5 140.432 92.5 131.082C92.5 125.42 89.7662 120.4 85.5668 117.335C79.8173 108.981 79.8267 97.763 85.6137 89.4284H85.5856C89.7756 86.3533 92.5 81.3526 92.5 75.6908C92.5 70.0291 88.9206 66.2163 85.8204 61.9628C80.5031 54.663 79.7609 39.086 85.4352 30.7611C89.7098 27.7051 92.5 22.6469 92.5 16.9181C92.5 7.57771 85.0782 0 75.9185 0C66.7587 0 59.3276 7.57771 59.3276 16.9181C59.3276 22.5511 62.0238 27.5327 66.1763 30.6078H66.1387C71.9352 38.9711 70.6857 52.0572 66.1387 61.9628C64.5416 65.4499 59.3276 70.0387 59.3276 75.6908C59.3276 81.343 62.0614 86.3533 66.242 89.4284H66.2138C71.9915 97.763 72.0103 108.981 66.2608 117.335C62.0614 120.4 59.3276 125.42 59.3276 131.082Z" fill="#4D4DF1"/>
<path id="Vector_3" opacity="0.2" d="M190.738 91.543C200.079 91.543 207.648 83.9711 207.648 74.6378C207.648 65.3045 200.079 57.7326 190.738 57.7326C185.066 57.7326 180.055 60.5183 176.989 64.7972C168.634 70.6556 157.414 70.646 149.079 64.7493L149.079 64.778C146.013 60.5087 141.002 57.7326 135.34 57.7326C129.677 57.7326 125.864 61.3798 121.61 64.5387C114.309 69.9568 98.7299 70.713 90.4039 64.9312C87.3475 60.5757 82.2887 57.7326 76.5592 57.7326C67.2175 57.7326 59.6484 65.295 59.6484 74.6378C59.6484 83.9806 67.2175 91.543 76.5592 91.543C82.1929 91.543 87.1751 88.7956 90.2506 84.5646L90.2506 84.6029C98.615 78.6966 111.703 79.9697 121.61 84.6029C125.097 86.2302 129.687 91.543 135.34 91.543C140.992 91.543 146.003 88.7574 149.079 84.4976L149.079 84.5263C157.424 78.6391 168.634 78.62 176.989 84.4784C180.055 88.7574 185.075 91.543 190.738 91.543Z" fill="#00EEB5"/>
</g>
</svg>
