<svg width="48" height="48" viewBox="0 0 48 48" fill="none" xmlns="http://www.w3.org/2000/svg">
<path fill-rule="evenodd" clip-rule="evenodd" d="M18.0148 4.09375H17.8698H17.8698H17.8697C16.6171 4.09371 15.5725 4.09369 14.7433 4.20114C13.868 4.31457 13.0777 4.56408 12.4427 5.17616C11.8077 5.78824 11.5488 6.54992 11.4311 7.39358C11.3512 7.96654 11.3286 9.3367 11.3222 10.5115C8.50273 10.6002 6.80988 10.9175 5.63344 12.0514C4 13.6258 4 16.1598 4 21.2277C4 26.2956 4 28.8296 5.63344 30.404C7.26688 31.9784 9.89586 31.9784 15.1538 31.9784H15.1538H20.7308H20.7308C21.5856 31.9784 22.3709 31.9784 23.0938 31.9716V31.2062C23.0938 27.2048 23.0938 25.2041 23.5662 24.5311C24.0386 23.858 25.9198 23.2141 29.6821 21.9262L30.3989 21.6808L30.3989 21.6808C30.9686 21.4858 31.4556 21.3191 31.8846 21.1808C31.8846 16.1441 31.8796 13.6209 30.2512 12.0514C29.0748 10.9175 27.3819 10.6002 24.5624 10.5115C24.556 9.3367 24.5334 7.96654 24.4535 7.39358C24.3358 6.54992 24.077 5.78824 23.4419 5.17616C22.8069 4.56408 22.0166 4.31457 21.1414 4.20114C20.3121 4.09369 19.2675 4.09371 18.0149 4.09375H18.0149H18.0148ZM22.4707 10.4795C22.4644 9.34175 22.4443 8.1173 22.3808 7.66217C22.2943 7.04204 22.1448 6.77664 21.9631 6.60151C21.7814 6.42639 21.5061 6.2823 20.8627 6.19893C20.1892 6.11165 19.2864 6.10951 17.9423 6.10951C16.5983 6.10951 15.6954 6.11165 15.022 6.19893C14.3786 6.2823 14.1032 6.42639 13.9215 6.60151C13.7398 6.77664 13.5903 7.04204 13.5038 7.66217C13.4403 8.1173 13.4203 9.34175 13.414 10.4795C13.9597 10.477 14.5388 10.477 15.1539 10.477H20.7308C21.3459 10.477 21.9249 10.477 22.4707 10.4795ZM21.2321 20.0348L21.6298 18.6314H20.0177C19.9481 18.2315 19.8188 17.8641 19.6298 17.5291C19.5732 17.4288 19.511 17.3325 19.4432 17.2405L21.2321 17.2507L21.6355 15.8359H15.9423H15.6809H14.198L13.7832 17.3473H15.9423C16.7491 17.3473 17.3419 17.5348 17.7207 17.9098C17.9252 18.1122 18.0745 18.3528 18.1686 18.6314H14.1809L13.7832 20.0348H18.2171C18.1717 20.2111 18.1047 20.372 18.0162 20.5178C17.8343 20.8132 17.5692 21.0386 17.2207 21.1939C16.8722 21.3492 16.4461 21.4268 15.9423 21.4268H13.9252L13.9366 22.5348L18.0048 27.4723H20.0787V27.3757L16.3627 22.8246L16.4139 22.8132C17.2889 22.7602 17.9953 22.5765 18.5332 22.2621C19.0711 21.9477 19.4631 21.5405 19.7093 21.0405C19.8631 20.7282 19.9689 20.3929 20.0266 20.0348H21.2321Z" fill="#FDD17F"/>
<path fill-rule="evenodd" clip-rule="evenodd" d="M25.1174 25.7792C24.7129 26.3555 24.7129 28.0686 24.7129 31.4947V33.1819C24.7129 39.2228 29.2548 42.1544 32.1044 43.3992C32.8774 43.7369 33.2639 43.9057 34.356 43.9057C35.4481 43.9057 35.8346 43.7369 36.6076 43.3992C39.4573 42.1544 43.9991 39.2228 43.9991 33.1819V31.4947C43.9991 28.0686 43.9991 26.3555 43.5946 25.7792C43.1901 25.2029 41.5794 24.6516 38.358 23.5489L37.7443 23.3388C36.065 22.764 35.2254 22.4766 34.356 22.4766C33.4866 22.4766 32.647 22.764 30.9678 23.3388L30.354 23.5489C27.1326 24.6516 25.5219 25.2029 25.1174 25.7792ZM37.6341 31.5834C37.9297 31.2524 37.9009 30.7444 37.5699 30.4488C37.2388 30.1532 36.7308 30.182 36.4352 30.513L33.208 34.1275L32.2768 33.0845C31.9812 32.7535 31.4732 32.7247 31.1422 33.0203C30.8111 33.3159 30.7823 33.8239 31.0779 34.1549L32.6086 35.8693C32.7611 36.04 32.9791 36.1376 33.208 36.1376C33.4369 36.1376 33.655 36.04 33.8074 35.8693L37.6341 31.5834Z" fill="#FFA400"/>
</svg>
