<svg width="56" height="56" viewBox="0 0 56 56" fill="none" xmlns="http://www.w3.org/2000/svg">
<path d="M18.2399 26.7586H38.102C38.3834 26.7586 38.6482 26.6179 38.7972 26.3779C38.9461 26.1462 38.971 25.8483 38.855 25.5917L34.7171 16.4883C34.5848 16.1903 34.2868 16 33.9641 16H22.3779C22.0551 16 21.7572 16.1903 21.6248 16.4883L17.4868 25.5917C17.371 25.8483 17.3958 26.1462 17.5447 26.3779C17.6937 26.6179 17.9586 26.7586 18.2399 26.7586Z" fill="#FFA400"/>
<path d="M22.3031 29.7295C22.1707 29.4316 21.8728 29.2412 21.55 29.2412H9.9638C9.64104 29.2412 9.34311 29.4316 9.2107 29.7295L5.07277 38.8329C4.95691 39.0895 4.98173 39.3874 5.13062 39.6191C5.27966 39.8591 5.54449 39.9998 5.82587 39.9998H25.6879C25.9693 39.9998 26.2341 39.8591 26.3831 39.6191C26.5321 39.3874 26.5569 39.0895 26.441 38.8329L22.3031 29.7295Z" fill="#FFA400"/>
<path d="M51.2692 38.8329L47.1312 29.7295C46.9988 29.4316 46.7009 29.2412 46.3781 29.2412H34.7919C34.4692 29.2412 34.1712 29.4316 34.0388 29.7295L29.9009 38.8329C29.785 39.0895 29.8099 39.3874 29.9587 39.6191C30.1078 39.8591 30.3726 39.9998 30.654 39.9998H50.5161C50.7974 39.9998 51.0623 39.8591 51.2112 39.6191C51.3602 39.3874 51.385 39.0895 51.2692 38.8329Z" fill="#FFA400"/>
</svg>
