<svg width="48" height="48" viewBox="0 0 48 48" fill="none" xmlns="http://www.w3.org/2000/svg">
<path d="M13.9945 44C11.2361 44 9 41.7639 9 39.0055V28.9972C9 26.2373 11.2373 24 13.9972 24C16.7593 24 18.9974 26.2407 18.9951 29.0028C18.9924 32.3378 18.9905 35.672 18.9896 39.0056C18.9888 41.7639 16.7528 44 13.9945 44Z" fill="#FDD17F"/>
<path d="M39 24L29 24.0216V39C29 41.7614 31.2386 44 34 44C36.7614 44 39 41.7614 39 39V24Z" fill="#FFA400"/>
<path d="M29 24H39V9C39 6.23858 36.7614 4 34 4C31.2386 4 29 6.23858 29 9V24Z" fill="#FDD17F"/>
<path d="M16.2238 6.50766C16.7749 7.02302 17.1286 7.70194 17.2274 8.43437H19.9875V9.94444H17.2274C16.8435 12.0614 14.9692 13.2777 12.4852 13.4366C14.4294 15.1962 16.2753 17.0533 18.0153 19H14.3495C12.8866 17.5237 10.9847 15.5054 9 13.6702V11.5027H10.4603C12.5554 11.5027 13.6318 10.8933 13.9731 9.94203H9V8.43919H13.825C13.4386 7.71667 12.4726 7.27593 10.7915 7.27593H9V5H20V6.50766H16.2238Z" fill="#FFA400"/>
</svg>
