<svg width="56" height="56" viewBox="0 0 56 56" fill="none" xmlns="http://www.w3.org/2000/svg">
<path fill-rule="evenodd" clip-rule="evenodd" d="M13 44.4996V11.5C13 10.672 13.672 10 14.5 10H41.4997C42.3277 10 42.9997 10.672 42.9997 11.5V44.4996C42.9997 45.0441 42.7042 45.5466 42.2272 45.8121C41.7502 46.0761 41.1667 46.0611 40.7047 45.7716L35.7173 42.6547L32.8103 45.5601C32.2253 46.1466 31.2743 46.1466 30.6893 45.5601L27.9998 42.8707L25.3104 45.5601C24.7254 46.1466 23.7744 46.1466 23.1894 45.5601L20.2824 42.6547L15.295 45.7716C14.833 46.0611 14.2495 46.0761 13.7725 45.8121C13.2955 45.5466 13 45.0441 13 44.4996ZM20.4999 27.9998H35.4998C36.3278 27.9998 36.9997 27.3278 36.9997 26.4998C36.9997 25.6718 36.3278 24.9998 35.4998 24.9998H20.4999C19.6719 24.9998 18.9999 25.6718 18.9999 26.4998C18.9999 27.3278 19.6719 27.9998 20.4999 27.9998ZM20.4999 20.4999H35.4998C36.3278 20.4999 36.9997 19.8279 36.9997 18.9999C36.9997 18.1719 36.3278 17.4999 35.4998 17.4999H20.4999C19.6719 17.4999 18.9999 18.1719 18.9999 18.9999C18.9999 19.8279 19.6719 20.4999 20.4999 20.4999ZM20.4999 35.4997H35.4998C36.3278 35.4997 36.9997 34.8277 36.9997 33.9998C36.9997 33.1718 36.3278 32.4998 35.4998 32.4998H20.4999C19.6719 32.4998 18.9999 33.1718 18.9999 33.9998C18.9999 34.8277 19.6719 35.4997 20.4999 35.4997Z" fill="#FFA400"/>
</svg>
