<svg width="1920" height="1040" viewBox="0 0 1920 1040" fill="none" xmlns="http://www.w3.org/2000/svg">
<g clip-path="url(#clip0_9856_36615)">
<g filter="url(#filter0_b_9856_36615)">
<path d="M0 0H1920V1040H0V0Z" fill="#FFCBCB"/>
</g>
<g style="mix-blend-mode:lighten" opacity="0.3">
<path d="M682.507 312.891L700.799 259.649C740.412 144.667 817.055 50.3167 918.348 -8.16471C1019.64 -66.6462 1139.67 -85.8451 1259.05 -62.6608L1316.56 -51.3485C1372.18 -32.5035 1429.93 -25.3205 1486.38 -30.2287C1542.82 -35.1368 1596.79 -52.0353 1645.09 -79.917C1693.38 -107.799 1735 -146.093 1767.47 -192.519C1799.94 -238.945 1822.6 -292.552 1834.09 -350.147L1851.59 -404.762C1891.21 -519.743 1967.85 -614.093 2069.14 -672.575C2170.43 -731.056 2290.46 -750.255 2409.85 -727.071L2466.12 -715.965C2548.86 -687.85 2635.69 -685.703 2715.47 -709.8C2795.26 -733.897 2864.35 -783.138 2913.88 -851.202C2963.42 -919.267 2991.13 -1003.05 2993.47 -1091.8C2995.82 -1180.55 2972.68 -1270.21 2927.02 -1349.28C2881.37 -1428.36 2815.29 -1493.23 2737.26 -1535.58C2659.23 -1577.92 2572.81 -1595.81 2489.1 -1586.95C2405.39 -1578.08 2328.2 -1542.86 2267.44 -1485.82C2206.68 -1428.77 2165.12 -1352.5 2148.1 -1266.79L2130.83 -1216.58C2090.89 -1100.39 2013.49 -1005.04 1911.16 -945.962C1808.83 -886.883 1687.56 -867.529 1566.97 -891.031L1514.64 -901.061C1459.01 -919.906 1401.26 -927.089 1344.82 -922.18C1288.37 -917.272 1234.4 -900.374 1186.11 -872.492C1137.81 -844.611 1096.19 -806.316 1063.72 -759.89C1031.25 -713.465 1008.59 -659.857 997.101 -602.263L979.396 -550.883C939.511 -434.7 862.151 -339.355 759.85 -280.291C657.549 -221.228 536.297 -201.905 415.738 -225.455L364.635 -235.279C281.843 -263.742 194.857 -266.18 114.872 -242.278C34.8871 -218.377 -34.4351 -169.23 -84.1703 -101.165C-133.905 -33.0997 -161.777 50.7682 -164.199 139.644C-166.621 228.521 -143.481 318.336 -97.758 397.53C-52.0353 476.724 14.1774 541.672 92.3573 584.013C170.537 626.354 257.105 644.151 340.919 635.112C424.733 626.072 501.956 590.611 562.648 533.293C623.339 475.974 664.722 399.422 681.468 313.491" fill="#E5E5EB"/>
</g>
<g style="mix-blend-mode:lighten" opacity="0.3">
<path d="M1297.51 1334.89L1315.8 1281.65C1355.41 1166.67 1432.05 1072.32 1533.35 1013.84C1634.64 955.354 1754.67 936.155 1874.05 959.339L1931.56 970.651C1987.18 989.497 2044.93 996.68 2101.38 991.771C2157.82 986.863 2211.79 969.965 2260.09 942.083C2308.38 914.201 2350 875.907 2382.47 829.481C2414.94 783.055 2437.6 729.448 2449.09 671.853L2466.59 617.238C2506.21 502.257 2582.85 407.907 2684.14 349.425C2785.43 290.944 2905.46 271.745 3024.85 294.929L3081.12 306.035C3163.86 334.15 3250.69 336.297 3330.47 312.2C3410.26 288.103 3479.35 238.862 3528.88 170.798C3578.42 102.733 3606.13 18.9497 3608.47 -69.7988C3610.82 -158.547 3587.68 -248.212 3542.02 -327.285C3496.37 -406.357 3430.29 -471.229 3352.26 -513.576C3274.23 -555.922 3187.81 -573.811 3104.1 -564.946C3020.39 -556.08 2943.2 -520.865 2882.44 -463.819C2821.68 -406.774 2780.12 -330.503 2763.1 -244.793L2745.83 -194.579C2705.89 -78.3888 2628.49 16.9591 2526.16 76.038C2423.83 135.117 2302.56 154.471 2181.97 130.969L2129.64 120.939C2074.01 102.094 2016.26 94.9114 1959.82 99.8195C1903.37 104.728 1849.4 121.626 1801.11 149.508C1752.81 177.389 1711.19 215.684 1678.72 262.11C1646.25 308.535 1623.59 362.143 1612.1 419.737L1594.4 471.117C1554.51 587.3 1477.15 682.645 1374.85 741.709C1272.55 800.772 1151.3 820.095 1030.74 796.545L979.635 786.721C896.843 758.258 809.857 755.82 729.872 779.722C649.887 803.623 580.565 852.77 530.83 920.835C481.095 988.9 453.223 1072.77 450.801 1161.64C448.379 1250.52 471.519 1340.34 517.242 1419.53C562.965 1498.72 629.177 1563.67 707.357 1606.01C785.537 1648.35 872.105 1666.15 955.919 1657.11C1039.73 1648.07 1116.96 1612.61 1177.65 1555.29C1238.34 1497.97 1279.72 1421.42 1296.47 1335.49" fill="#E5E5EB"/>
</g>
<g style="mix-blend-mode:multiply" opacity="0.3">
<circle cx="1555" cy="365" r="2" fill="#9C9CAF"/>
<circle cx="1555" cy="385" r="2" fill="#9C9CAF"/>
<circle cx="1555" cy="405" r="2" fill="#9C9CAF"/>
<circle cx="1555" cy="425" r="2" fill="#9C9CAF"/>
<circle cx="1555" cy="445" r="2" fill="#9C9CAF"/>
<circle cx="1575" cy="365" r="2" fill="#9C9CAF"/>
<circle cx="1575" cy="385" r="2" fill="#9C9CAF"/>
<circle cx="1575" cy="405" r="2" fill="#9C9CAF"/>
<circle cx="1575" cy="425" r="2" fill="#9C9CAF"/>
<circle cx="1575" cy="445" r="2" fill="#9C9CAF"/>
<circle cx="1595" cy="365" r="2" fill="#9C9CAF"/>
<circle cx="1595" cy="385" r="2" fill="#9C9CAF"/>
<circle cx="1595" cy="405" r="2" fill="#9C9CAF"/>
<circle cx="1595" cy="425" r="2" fill="#9C9CAF"/>
<circle cx="1595" cy="445" r="2" fill="#9C9CAF"/>
<circle cx="1615" cy="365" r="2" fill="#9C9CAF"/>
<circle cx="1615" cy="385" r="2" fill="#9C9CAF"/>
<circle cx="1615" cy="405" r="2" fill="#9C9CAF"/>
<circle cx="1615" cy="425" r="2" fill="#9C9CAF"/>
<circle cx="1615" cy="445" r="2" fill="#9C9CAF"/>
<circle cx="1635" cy="365" r="2" fill="#9C9CAF"/>
<circle cx="1635" cy="385" r="2" fill="#9C9CAF"/>
<circle cx="1635" cy="405" r="2" fill="#9C9CAF"/>
<circle cx="1635" cy="425" r="2" fill="#9C9CAF"/>
<circle cx="1635" cy="445" r="2" fill="#9C9CAF"/>
</g>
<g style="mix-blend-mode:multiply" opacity="0.3">
<circle cx="280" cy="722" r="2" fill="#9C9CAF"/>
<circle cx="280" cy="742" r="2" fill="#9C9CAF"/>
<circle cx="280" cy="762" r="2" fill="#9C9CAF"/>
<circle cx="280" cy="782" r="2" fill="#9C9CAF"/>
<circle cx="280" cy="802" r="2" fill="#9C9CAF"/>
<circle cx="300" cy="722" r="2" fill="#9C9CAF"/>
<circle cx="300" cy="742" r="2" fill="#9C9CAF"/>
<circle cx="300" cy="762" r="2" fill="#9C9CAF"/>
<circle cx="300" cy="782" r="2" fill="#9C9CAF"/>
<circle cx="300" cy="802" r="2" fill="#9C9CAF"/>
<circle cx="320" cy="722" r="2" fill="#9C9CAF"/>
<circle cx="320" cy="742" r="2" fill="#9C9CAF"/>
<circle cx="320" cy="762" r="2" fill="#9C9CAF"/>
<circle cx="320" cy="782" r="2" fill="#9C9CAF"/>
<circle cx="320" cy="802" r="2" fill="#9C9CAF"/>
<circle cx="340" cy="722" r="2" fill="#9C9CAF"/>
<circle cx="340" cy="742" r="2" fill="#9C9CAF"/>
<circle cx="340" cy="762" r="2" fill="#9C9CAF"/>
<circle cx="340" cy="782" r="2" fill="#9C9CAF"/>
<circle cx="340" cy="802" r="2" fill="#9C9CAF"/>
<circle cx="360" cy="722" r="2" fill="#9C9CAF"/>
<circle cx="360" cy="742" r="2" fill="#9C9CAF"/>
<circle cx="360" cy="762" r="2" fill="#9C9CAF"/>
<circle cx="360" cy="782" r="2" fill="#9C9CAF"/>
<circle cx="360" cy="802" r="2" fill="#9C9CAF"/>
</g>
</g>
<defs>
<filter id="filter0_b_9856_36615" x="-110" y="-110" width="2140" height="1260" filterUnits="userSpaceOnUse" color-interpolation-filters="sRGB">
<feFlood flood-opacity="0" result="BackgroundImageFix"/>
<feGaussianBlur in="BackgroundImage" stdDeviation="55"/>
<feComposite in2="SourceAlpha" operator="in" result="effect1_backgroundBlur_9856_36615"/>
<feBlend mode="normal" in="SourceGraphic" in2="effect1_backgroundBlur_9856_36615" result="shape"/>
</filter>
<clipPath id="clip0_9856_36615">
<rect width="1920" height="1040" fill="white"/>
</clipPath>
</defs>
</svg>
